<?xml version="1.0" encoding="UTF-8" standalone="no"?> <svg xmlns="http://www.w3.org/2000/svg" xmlns:xlink="http://www.w3.org/1999/xlink" viewBox="0 0 64 64"><defs><linearGradient id="linear-gradient" x1="8.923" y1="57.164" x2="55.077" y2="11.009" gradientUnits="userSpaceOnUse"><stop offset="0" stop-color="#41dfd0"/><stop offset="1" stop-color="#ee83ef"/></linearGradient></defs><g id="gradient"><path d="M52,10H40a3,3,0,0,0-3-3H27a3,3,0,0,0-3,3H12a5.006,5.006,0,0,0-5,5V54a3,3,0,0,0,3,3H54a3,3,0,0,0,3-3V15A5.006,5.006,0,0,0,52,10Zm3,5v2.026A4.948,4.948,0,0,0,52,16H48V12h4A3,3,0,0,1,55,15Zm0,8.026A4.948,4.948,0,0,0,52,22H48V18h4a3,3,0,0,1,3,3Zm0,24.033A9.011,9.011,0,0,0,48,51.9V24h4a3,3,0,0,1,3,3ZM25,18H42v4H22V18Zm5-5h4v3H30Zm14,8h2v1H44Zm2-4v2H44V15h2ZM20,22H18V21h2Zm0-3H18V15h2Zm-4,1v2H12a4.948,4.948,0,0,0-3,1.026V21a3,3,0,0,1,3-3h4Zm-4,4h4V51.9a9.011,9.011,0,0,0-7-4.837V27A3,3,0,0,1,12,24Zm6,0h2v8H18Zm0,10h2v2H18Zm4,3V24H42V55H22ZM44,24h2v8H44Zm0,10h2v2H44Zm2-22v1H44V12Zm-4,0v4H40V12Zm-4-2v6H36V9h1A1,1,0,0,1,38,10ZM34,9v2H30V9Zm-8,1a1,1,0,0,1,1-1h1v7H26Zm-2,6H22V12h2Zm-4-4v1H18V12Zm-8,0h4v4H12a4.948,4.948,0,0,0-3,1.026V15A3,3,0,0,1,12,12ZM10,55a1,1,0,0,1-1-1V49.071A7.016,7.016,0,0,1,14.929,55Zm8,0V38h2V55Zm26,0V38h2V55Zm11-1a1,1,0,0,1-1,1H49.071A7.016,7.016,0,0,1,55,49.071ZM31,49h2v2H31Zm6,0v2H35V49ZM27,49h2v2H27Z" style="fill:url(#linear-gradient)"/></g></svg>
