<svg xmlns="http://www.w3.org/2000/svg" version="1.1" xmlns:xlink="http://www.w3.org/1999/xlink" xmlns:svgjs="http://svgjs.dev/svgjs" width="2000" height="1379" viewBox="0 0 2000 1379"><g transform="matrix(1,0,0,1,0.6140986822464356,0.5583263876460478)"><svg viewBox="0 0 358 247" data-background-color="#ffffff" preserveAspectRatio="xMidYMid meet" height="1379" width="2000" xmlns="http://www.w3.org/2000/svg" xmlns:xlink="http://www.w3.org/1999/xlink"><g id="tight-bounds" transform="matrix(1,0,0,1,-0.10992366412210686,-0.10000479894748082)"><svg viewBox="0 0 358.2198473282442 247.2" height="247.2" width="358.2198473282442"><g><svg viewBox="0 0 358.2198473282442 247.2" height="247.2" width="358.2198473282442"><g><svg viewBox="0 0 358.2198473282442 247.2" height="247.2" width="358.2198473282442"><g><svg viewBox="0 0 358.2198473282442 247.2" height="247.2" width="358.2198473282442" id="textblock"><g><svg viewBox="0 0 358.2198473282442 247.2" height="247.2" width="358.2198473282442"><g transform="matrix(1,0,0,1,0,0)"><svg width="358.2198473282442" viewBox="-0.05000000447034836 -33.45000076293945 56.95000076293945 39.29999923706055" height="247.2" data-palette-color="#e83d95"><path d="M47.3-14.3L47.3-14.3 52.15-14.4Q53.95-14.4 53.95-14.15L53.95-14.15Q53.95-13.5 46.65-13L46.65-13Q42-3.9 42-0.6L42-0.6Q42 1.7 43.45 1.7L43.45 1.7Q44 1.7 44.83 1.03 45.65 0.35 45.83 0.35 46 0.35 46 0.6L46 0.6Q45.75 1.5 44.48 2.1 43.2 2.7 42.33 2.7 41.45 2.7 40.95 2.6L40.95 2.6Q39.75 2.15 39.75-0.3L39.75-0.3Q39.75-5.35 43.6-13.15L43.6-13.15 37.6-13Q30.9-6.45 24.15-1.5L24.15-1.5Q14.05 5.85 8.35 5.85L8.35 5.85Q8 5.85 7.65 5.8L7.65 5.8Q-0.05 5.15-0.05-2.1L-0.05-2.1Q-0.05-6.4 2.65-11.2L2.65-11.2Q6.25-17.6 12.5-22.13 18.75-26.65 23.7-26.65 28.65-26.65 28.65-23L28.65-23Q28.65-20.55 27.15-17.55 25.65-14.55 24.1-13.75L24.1-13.75Q23.95-13.7 23.78-13.7 23.6-13.7 23.6-13.8L23.6-13.8 25.25-16.5Q26.95-19.15 26.95-21.15 26.95-23.15 26.08-24.38 25.2-25.6 23.3-25.6L23.3-25.6Q19.4-25.6 13.98-21.25 8.55-16.9 5.73-10.55 2.9-4.2 2.9-0.65L2.9-0.65Q2.9 4.7 8.35 4.7L8.35 4.7Q13.55 4.7 22.45-2L22.45-2Q26.4-4.95 35.3-13.15L35.3-13.15Q33.55-13.05 32.05-12.8L32.05-12.8Q28.85-12.2 29.05-13L29.05-13Q29.25-14.85 30.95-14.85L30.95-14.85Q34.25-14.45 36.5-14.45L36.5-14.45Q40.8-18.4 49.35-27.4L49.35-27.4Q55.1-33.45 56.35-33.45L56.35-33.45Q56.9-33.45 56.9-32.6 56.9-31.75 56.45-29.95 56-28.15 55.45-27.75L55.45-27.75Q54.3-26.95 53.3-25.58 52.3-24.2 50.45-20.43 48.6-16.65 47.3-14.3ZM51.3-26.5L51.3-26.5 38.5-14.5 41.45-14.5Q42.5-14.45 44.05-14.45L44.05-14.45Q45.5-17.3 51.3-26.5Z" opacity="1" transform="matrix(1,0,0,1,0,0)" fill="#e83d95" class="undefined-text-0" data-fill-palette-color="primary" id="text-0"></path></svg></g></svg></g></svg></g></svg></g></svg></g><defs></defs></svg><rect width="358.2198473282442" height="247.2" fill="none" stroke="none" visibility="hidden"></rect></g></svg></g></svg>